#!OML:ASF F:\VICON\USERDATA\INSTALL\rory3\rory3.ASF
:FULLY-SPECIFIED
:DEGREES
248
root 3.24704 17.58 -20.9721 0.86131 11.1455 6.44822
lowerback 20.0331 1.28602 -4.4019
upperback 2.51883 1.00105 2.64024
thorax -8.60326 0.684132 5.13736
lowerneck -6.12837 -8.81142 -7.65486
upperneck 30.0977 -10.7151 -1.48154
head 11.1038 -5.81032 -0.451049
rclavicle 7.95139e-016 -1.59028e-015
rhumerus -36.4914 -30.3999 -68.1697
rradius 68.0947
rwrist -75.57
rhand -30.6205 -12.244
rfingers 7.12502
rthumb -3.91668 -42.1878
lclavicle 7.95139e-016 -1.59028e-015
lhumerus -46.2791 7.73421 78.8243
lradius 49.0248
lwrist 7.45041
lhand -10.5761 50.5588
lfingers 7.12502
lthumb 15.4288 79.963
rfemur -18.6639 -7.86763 13.6559
rtibia 73.658
rfoot -3.20517 -15.1594
rtoes 17.3701
lfemur -11.4956 -3.12671 -29.1824
ltibia 33.8659
lfoot -14.1008 -1.12239
ltoes -9.92834
249
root 3.29487 17.6018 -20.8298 1.06498 10.6433 6.63904
lowerback 20.0147 1.25806 -4.48502
upperback 2.40006 0.928739 2.46869
thorax -8.7136 0.654127 5.01652
lowerneck -6.53085 -8.70604 -7.70923
upperneck 30.2804 -10.5322 -1.47673
head 11.2518 -5.73296 -0.446347
rclavicle 0 2.54444e-014
rhumerus -36.8424 -29.51 -68.7043
rradius 69.9881
rwrist -75.9377
rhand -30.7937 -12.2312
rfingers 7.12502
rthumb -4.08388 -42.1718
lclavicle 0 2.54444e-014
lhumerus -46.5845 8.26816 78.2028
lradius 48.5971
lwrist 7.5929
lhand -10.7261 50.3117
lfingers 7.12502
lthumb 15.2843 79.7269
rfemur -20.2751 -7.56414 13.5671
rtibia 73.9936
rfoot -3.60665 -15.3577
rtoes 18.4549
lfemur -11.0627 -2.6542 -29.4926
ltibia 33.6618
lfoot -13.9375 -1.00162
ltoes -11.1201
250
root 3.3088 17.632 -20.6791 0.852518 11.4762 6.7167
lowerback 20.3887 0.866375 -4.62168
upperback 2.18157 0.364099 2.4211
thorax -9.09009 0.404975 5.20604
lowerneck -6.00992 -8.56685 -7.7096
upperneck 30.2781 -10.383 -1.46692
head 11.1433 -5.6713 -0.396359
rclavicle -1.07344e-014 1.74931e-014
rhumerus -37.8992 -28.524 -68.9475
rradius 72.1339
rwrist -76.1664
rhand -30.7121 -12.2379
rfingers 7.12502
rthumb -4.00509 -42.18
lclavicle -1.07344e-014 1.74931e-014
lhumerus -47.267 8.53094 77.5951
lradius 48.2615
lwrist 7.8931
lhand -10.768 50.5177
lfingers 7.12502
lthumb 15.244 79.9361
rfemur -20.8866 -8.23498 13.8057
rtibia 73.9816
rfoot -6.19343 -15.8716
rtoes 13.2839
lfemur -10.1796 -2.98605 -29.4855
ltibia 33.4923
lfoot -13.5977 -1.38775
ltoes -12.6247
251
root 3.33145 17.6556 -20.5296 0.72831 12.0927 6.96378
lowerback 20.7308 0.550775 -4.75125
upperback 2.28591 -0.101901 2.31229
thorax -9.10132 0.184142 5.29481
lowerneck -6.8687 -8.53895 -7.61192
upperneck 30.5387 -10.2684 -1.56949
head 11.3972 -5.61671 -0.488012
rclavicle -1.03368e-014 1.90833e-014
rhumerus -38.1458 -27.8608 -69.4449
rradius 74.1575
rwrist -76.5068
rhand -30.8941 -12.138
rfingers 7.12502
rthumb -4.18091 -42.0768
lclavicle -1.03368e-014 1.90833e-014
lhumerus -47.0898 9.24601 77.0146
lradius 47.6392
lwrist 8.05458
lhand -10.7619 50.9859
lfingers 7.12502
lthumb 15.2499 80.4038
rfemur -21.6318 -8.88006 13.7825
rtibia 73.8342
rfoot -7.3398 -15.5558
rtoes 12.0097
lfemur -9.37006 -3.26945 -29.7049
ltibia 33.2876
lfoot -13.2871 -1.61102
ltoes -14.0552
252
root 3.36548 17.6742 -20.3908 0.817946 12.0016 7.09534
lowerback 20.2657 0.580653 -4.87464
upperback 2.65835 -0.0676179 2.291
thorax -8.44034 0.174048 5.31642
lowerneck -7.63591 -8.68815 -7.5987
upperneck 30.431 -10.4317 -1.5353
head 11.5143 -5.678 -0.536707
rclavicle 6.36111e-015 -3.65764e-014
rhumerus -37.9715 -27.7995 -69.6793
rradius 75.9625
rwrist -76.8874
rhand -31.1065 -12.1931
rfingers 7.12502
rthumb -4.38601 -42.1277
lclavicle 6.36111e-015 -3.65764e-014
lhumerus -46.1728 9.9975 76.7278
lradius 46.5331
lwrist 8.05255
lhand -11.0491 50.8031
lfingers 7.12502
lthumb 14.9732 80.2418
rfemur -22.9377 -8.96653 13.8371
rtibia 73.5694
rfoot -7.3618 -14.7354
rtoes 13.9215
lfemur -8.8889 -3.1401 -29.8678
ltibia 33.1625
lfoot -12.2332 -1.54291
ltoes -12.3477
253
root 3.39054 17.704 -20.2463 0.862484 12.1825 7.10408
lowerback 20.4402 0.489624 -4.9028
upperback 2.30172 -0.212719 2.22227
thorax -8.91114 0.128011 5.30661
lowerneck -6.98421 -8.66684 -7.64021
upperneck 30.4454 -10.4727 -1.45702
head 11.3994 -5.69884 -0.47314
rclavicle 5.96354e-015 -2.22639e-014
rhumerus -39.3021 -27.478 -69.3566
rradius 77.9093
rwrist -77.326
rhand -31.2947 -12.4223
rfingers 7.12502
rthumb -4.56775 -42.3531
lclavicle 5.96354e-015 -2.22639e-014
lhumerus -47.133 9.79739 76.3087
lradius 46.7385
lwrist 8.67503
lhand -11.2488 51.5548
lfingers 7.12502
lthumb 14.7808 81.0078
rfemur -24.0195 -9.11983 14.1123
rtibia 73.0803
rfoot -8.36183 -14.4056
rtoes 14.682
lfemur -8.35123 -3.06862 -29.7908
ltibia 33.0707
lfoot -11.7439 -1.92666
ltoes -12.2821
254
root 3.42302 17.7264 -20.1179 1.06371 12.12 7.10178
lowerback 20.3087 0.545071 -4.88553
upperback 1.72358 -0.156924 2.05367
thorax -9.48963 0.181703 5.10213
lowerneck -5.03921 -8.62589 -7.4065
upperneck 30.0555 -10.6284 -1.3684
head 10.8586 -5.75064 -0.379507
rclavicle -5.1684e-014 3.18055e-015
rhumerus -41.4537 -27.4074 -68.6238
rradius 79.8308
rwrist -77.0907
rhand -30.3215 -12.8235
rfingers 7.12502
rthumb -3.62792 -42.7724
lclavicle -5.1684e-014 3.18055e-015
lhumerus -48.126 9.33748 75.7186
lradius 46.4063
lwrist 8.95712
lhand -11.3159 52.1291
lfingers 7.12502
lthumb 14.7162 81.5868
rfemur -25.4383 -9.07544 14.4067
rtibia 72.4733
rfoot -9.08213 -14.2855
rtoes 14.3353
lfemur -8.10668 -3.02061 -29.7652
ltibia 32.989
lfoot -11.358 -2.1569
ltoes -12.7285
255
root 3.45465 17.741 -19.988 1.19158 11.9321 7.23246
lowerback 20.1699 0.56533 -5.02237
upperback 1.93165 -0.156131 2.006
thorax -9.18179 0.17147 5.12137
lowerneck -5.86298 -8.64594 -7.28535
upperneck 30.0949 -10.6012 -1.42336
head 11.0207 -5.72547 -0.459921
rclavicle 2.38542e-014 3.97569e-014
rhumerus -41.495 -27.5685 -68.7106
rradius 81.5723
rwrist -77.3874
rhand -30.9238 -13.0209
rfingers 7.12502
rthumb -4.2096 -42.9591
lclavicle 2.38542e-014 3.97569e-014
lhumerus -47.5508 9.90947 75.4228
lradius 45.7907
lwrist 8.97399
lhand -11.5206 51.7592
lfingers 7.12502
lthumb 14.5189 81.2312
rfemur -26.7237 -8.9072 14.5168
rtibia 71.7185
rfoot -9.81305 -14.5367
rtoes 12.8311
lfemur -7.76851 -2.98488 -29.9125
ltibia 32.9187
lfoot -10.9185 -2.32019
ltoes -12.6363
256
root 3.48193 17.7683 -19.8337 1.17278 12.421 7.37397
lowerback 19.9712 0.263517 -5.35325
upperback 1.81679 -0.605751 2.13607
thorax -9.13841 -0.0258939 5.57766
lowerneck -5.15015 -8.4771 -7.75502
upperneck 29.8233 -10.3796 -1.28398
head 10.8135 -5.66637 -0.265653
rclavicle -1.43125e-014 -1.27222e-014
rhumerus -42.2078 -27.0649 -68.3948
rradius 83.1809
rwrist -77.6029
rhand -30.4296 -12.1484
rfingers 7.12502
rthumb -3.73235 -42.0955
lclavicle -1.43125e-014 -1.27222e-014
lhumerus -48.0807 10.6833 74.9994
lradius 45.2964
lwrist 8.93184
lhand -11.2556 51.1986
lfingers 7.12502
lthumb 14.7742 80.6521
rfemur -27.4039 -9.22018 14.6153
rtibia 70.7128
rfoot -9.19688 -14.0882
rtoes 18.975
lfemur -7.10048 -3.33633 -29.9897
ltibia 32.8633
lfoot -10.7842 -2.79226
ltoes -13.6292
257
root 3.51398 17.7931 -19.6972 1.17371 12.2184 7.29556
lowerback 19.9781 0.236231 -5.20056
upperback 2.16041 -0.60232 2.12986
thorax -8.76329 -0.0518891 5.47374
lowerneck -6.60103 -8.55552 -7.79892
upperneck 29.9779 -10.404 -1.16768
head 11.1674 -5.65845 -0.301919
rclavicle 1.51076e-014 -1.74931e-014
rhumerus -41.8104 -27.41 -68.6881
rradius 84.6605
rwrist -77.1116
rhand -30.5857 -11.2883
rfingers 7.12502
rthumb -3.88308 -41.2327
lclavicle 1.51076e-014 -1.74931e-014
lhumerus -47.1993 11.2755 74.8243
lradius 44.7184
lwrist 8.97386
lhand -10.9916 51.5135
lfingers 7.12502
lthumb 15.0286 80.948
rfemur -28.4197 -8.87081 14.947
rtibia 69.5569
rfoot -10.4216 -14.2642
rtoes 16.1121
lfemur -6.58759 -3.2 -29.9268
ltibia 32.7433
lfoot -10.779 -2.86918
ltoes -16.0927
258
root 3.53521 17.8085 -19.5517 1.16346 12.3103 7.27847
lowerback 19.902 0.115932 -5.32291
upperback 2.3026 -0.77409 2.19783
thorax -8.53895 -0.140056 5.66005
lowerneck -7.12704 -8.52448 -7.9178
upperneck 29.9561 -10.3188 -1.09368
head 11.2727 -5.62084 -0.273474
rclavicle 8.34896e-015 -4.77083e-015
rhumerus -41.8127 -27.4402 -68.7076
rradius 86.1285
rwrist -76.1558
rhand -30.3957 -11.0644
rfingers 7.12502
rthumb -3.69961 -41.012
lclavicle 8.34896e-015 -4.77083e-015
lhumerus -47.0534 11.7431 74.6383
lradius 44.4738
lwrist 9.05257
lhand -11.0672 52.1552
lfingers 7.12502
lthumb 14.9558 81.5952
rfemur -29.266 -8.72002 15.2532
rtibia 68.2542
rfoot -11.0632 -13.9888
rtoes 16.6282
lfemur -5.99429 -3.23541 -29.8408
ltibia 32.5296
lfoot -10.6382 -3.09418
ltoes -17.7278
